<?xml version="1.0" standalone="no"?><!DOCTYPE svg PUBLIC "-//W3C//DTD SVG 1.1//EN" "http://www.w3.org/Graphics/SVG/1.1/DTD/svg11.dtd"><svg t="1582216927915" class="icon" viewBox="0 0 1255 1024" version="1.1" xmlns="http://www.w3.org/2000/svg" p-id="2955" xmlns:xlink="http://www.w3.org/1999/xlink" width="245.1171875" height="200"><defs><style type="text/css"></style></defs><path d="M1035.583659 464.253206a83.289757 83.289757 0 0 0-84.841945-12.153303c-2.37782-21.730634-3.302528-42.536561-7.166486-62.748033a341.118119 341.118119 0 0 0-152.279566-222.061983 494.124241 494.124241 0 0 0-576.918619 25.792744 313.145706 313.145706 0 0 0 6.208752 501.753081 61.823324 61.823324 0 0 1 25.924845 80.119329 560.042701 560.042701 0 0 0-16.281463 61.658198q3.0053 2.212694 6.043626 4.359337a317.405967 317.405967 0 0 0 36.922264-20.871977 180.185928 180.185928 0 0 1 167.603296-30.944687 419.850386 419.850386 0 0 0 224.406779-12.879859 206.639178 206.639178 0 0 0 15.026502 40.455968 229.525697 229.525697 0 0 0 30.515359 32.496875 554.626555 554.626555 0 0 1-162.1211 30.64746 623.253087 623.253087 0 0 1-176.751299-17.041044 47.127075 47.127075 0 0 0-29.227373 3.533705c-44.78228 20.938028-89.168256 42.932864-133.190955 65.158878a39.630336 39.630336 0 0 1-60.931642-44.584129c6.142702-35.799404 10.931368-71.896035 14.332972-107.992666a34.544443 34.544443 0 0 0-11.162545-23.513999 468.562675 468.562675 0 0 1-133.290031-200.694628C-28.061539 397.046761 14.8383 260.81748 132.243171 148.201275c213.244234-204.756737 587.849987-195.839911 792.606723 16.842893a386.957207 386.957207 0 0 1 114.33352 280.285552c0 4.326312 0 8.718674-0.495379 13.210112a24.504758 24.504758 0 0 1-3.104376 5.713374z m-57.331887 19.385839a69.749392 69.749392 0 0 1 69.353089 53.798182 240.754292 240.754292 0 0 0 68.329304 129.393047 47.391277 47.391277 0 0 1 2.741099 24.306606 49.802122 49.802122 0 0 1-25.000137-2.146643 252.775494 252.775494 0 0 0-134.115663-67.734849 67.8009 67.8009 0 0 1-52.014816-74.075704 72.655616 72.655616 0 0 1 70.707124-63.540639z m275.992267 270.245868a67.437622 67.437622 0 0 1-56.53928 68.560481 233.719908 233.719908 0 0 0-128.105062 65.092827c-8.190269 8.058168-18.163904 14.13482-25.792743 2.608998a24.70291 24.70291 0 0 1 3.302528-23.745177 244.387073 244.387073 0 0 0 66.711065-125.496064 71.037378 71.037378 0 0 1 140.423492 12.978935z m-205.120015 200.133197a70.079644 70.079644 0 0 1-61.724249 69.187962 68.263254 68.263254 0 0 1-76.321422-49.835147 247.689601 247.689601 0 0 0-70.178721-133.587259 41.116474 41.116474 0 0 1-2.774123-21.004078 46.004215 46.004215 0 0 1 23.117696 0.363278 271.236626 271.236626 0 0 0 138.342898 69.947544 64.432322 64.432322 0 0 1 49.438845 64.9277z m-344.81695-201.850512a66.711066 66.711066 0 0 1 53.567004-64.23417 246.104388 246.104388 0 0 0 132.365323-66.512914 47.820606 47.820606 0 0 1 22.95257-3.302528 43.923623 43.923623 0 0 1-3.302528 22.358115 250.265573 250.265573 0 0 0-68.29628 129.65725 66.942243 66.942243 0 0 1-76.552599 51.717588 69.518215 69.518215 0 0 1-60.832566-69.683341z" p-id="2956"></path></svg>