<?xml version="1.0" standalone="no"?><!DOCTYPE svg PUBLIC "-//W3C//DTD SVG 1.1//EN" "http://www.w3.org/Graphics/SVG/1.1/DTD/svg11.dtd"><svg t="1582305307429" class="icon" viewBox="0 0 1024 1024" version="1.1" xmlns="http://www.w3.org/2000/svg" p-id="13481" xmlns:xlink="http://www.w3.org/1999/xlink" width="200" height="200"><defs><style type="text/css"></style></defs><path d="M676.193103 211.862069h120.055173v102.4c0 10.593103 8.827586 19.42069 19.42069 19.42069s19.42069-8.827586 19.420689-19.42069v-123.586207c0-1.765517 0-5.296552-1.765517-7.062069-3.531034-7.062069-10.593103-12.358621-17.655172-12.358621h-141.24138c-10.593103 0-19.42069 8.827586-19.420689 19.42069 1.765517 10.593103 10.593103 19.42069 21.186206 21.186207 0-1.765517 0-1.765517 0 0zM960.441379 522.593103L526.124138 121.82069h-1.765517l-1.765518-1.765518-1.765517-1.765517-3.531034-1.765517h-12.358621l-3.531034 3.531034-1.765518 1.765518-1.765517 1.765517L63.558621 522.593103c-7.062069 7.062069-7.062069 19.42069 0 28.248276 7.062069 7.062069 17.655172 7.062069 26.482758 1.765518L512 162.427586l421.958621 390.179311c3.531034 3.531034 8.827586 5.296552 14.124138 5.296551 10.593103 0 19.42069-8.827586 19.420689-21.186207-1.765517-5.296552-3.531034-10.593103-7.062069-14.124138z" p-id="13482"></path><path d="M817.434483 527.889655c-10.593103 0-19.42069 8.827586-19.42069 19.42069v321.324138H635.586207V670.896552c0-10.593103-8.827586-19.42069-19.42069-19.42069H409.6c-10.593103 0-19.42069 8.827586-19.42069 19.42069v197.737931h-162.427586V547.310345c0-10.593103-8.827586-19.42069-19.42069-19.42069-10.593103 0-19.42069 8.827586-19.420689 19.42069v340.744827c0 1.765517 0 5.296552 1.765517 7.062069 3.531034 7.062069 10.593103 12.358621 17.655172 12.358621h201.268966c7.062069 0 14.124138-5.296552 17.655172-12.358621 1.765517-1.765517 1.765517-5.296552 1.765518-7.062069V690.317241h167.724138v197.737931c0 1.765517 0 5.296552 1.765517 7.062069 3.531034 7.062069 10.593103 12.358621 17.655172 12.358621h203.034483c7.062069 0 14.124138-5.296552 17.655172-12.358621 1.765517-1.765517 1.765517-5.296552 1.765518-7.062069V547.310345c-1.765517-10.593103-10.593103-19.42069-21.186207-19.42069z" p-id="13483"></path></svg>