<?xml version="1.0" standalone="no"?><!DOCTYPE svg PUBLIC "-//W3C//DTD SVG 1.1//EN" "http://www.w3.org/Graphics/SVG/1.1/DTD/svg11.dtd"><svg t="1582216961256" class="icon" viewBox="0 0 1204 1024" version="1.1" xmlns="http://www.w3.org/2000/svg" p-id="3710" xmlns:xlink="http://www.w3.org/1999/xlink" width="235.15625" height="200"><defs><style type="text/css"></style></defs><path d="M813.834061 308.541485c13.414847 0 26.829694 0 40.244541 4.471616-35.772926-178.864629-219.10917-313.0131-429.275109-313.0131C192.279476 0 0 165.449782 0 380.087336c0 120.733624 62.60262 223.580786 169.921397 299.598253l-40.244541 134.148472 147.563319-76.017467c53.659389 8.943231 93.90393 22.358079 147.563319 22.358079 13.414847 0 26.829694 0 40.244541 0-8.943231-31.30131-13.414847-62.60262-13.414847-93.90393C451.633188 469.519651 612.611354 308.541485 813.834061 308.541485zM335.371179 286.183406C335.371179 290.655022 330.899563 290.655022 326.427948 295.126638l0 0c0 0 0 0 0 0C313.0131 304.069869 299.598253 313.0131 281.71179 313.0131 245.938865 313.0131 214.637555 281.71179 214.637555 245.938865S245.938865 178.864629 281.71179 178.864629c35.772926 0 67.074236 31.30131 67.074236 67.074236C348.786026 259.353712 344.31441 272.768559 335.371179 286.183406zM594.724891 290.655022c-4.471616 4.471616-4.471616 4.471616-8.943231 8.943231l0 0c0 0 0 0 0 0-13.414847 8.943231-26.829694 17.886463-44.716157 17.886463-35.772926 0-67.074236-31.30131-67.074236-67.074236s31.30131-67.074236 67.074236-67.074236c35.772926 0 67.074236 31.30131 67.074236 67.074236C608.139738 263.825328 603.668122 277.240175 594.724891 290.655022z" p-id="3711"></path><path d="M1202.864629 661.799127C1198.393013 491.877729 1041.886463 357.729258 854.078603 366.672489c-187.80786 4.471616-335.371179 147.563319-330.899563 317.484716 4.471616 169.921397 160.978166 304.069869 348.786026 295.126638 35.772926 0 71.545852-8.943231 102.847162-17.886463l111.790393 62.60262-31.30131-102.847162C1149.20524 867.49345 1207.336245 769.117904 1202.864629 661.799127zM804.89083 572.366812c-8.943231 22.358079-26.829694 35.772926-49.187773 35.772926-31.30131 0-53.659389-22.358079-53.659389-53.659389 0-31.30131 22.358079-53.659389 53.659389-53.659389 17.886463 0 35.772926 8.943231 44.716157 22.358079 4.471616 8.943231 8.943231 17.886463 8.943231 26.829694C809.362445 558.951965 809.362445 567.895197 804.89083 572.366812zM1010.585153 576.838428c-8.943231 22.358079-26.829694 35.772926-49.187773 35.772926-31.30131 0-53.659389-22.358079-53.659389-53.659389 0-31.30131 22.358079-53.659389 53.659389-53.659389 17.886463 0 35.772926 8.943231 44.716157 22.358079 4.471616 8.943231 8.943231 17.886463 8.943231 26.829694C1015.056769 563.423581 1015.056769 567.895197 1010.585153 576.838428z" p-id="3712"></path></svg>